<svg xmlns="http://www.w3.org/2000/svg" viewBox="0 0 28 38.75" version="1.1" x="0px" y="0px"><g stroke="none" stroke-width="1" fill="white" fill-rule="evenodd"><g transform="translate(-455.000000, -1646.000000)" fill="white"><g transform="translate(0.000000, 1519.000000)"><g transform="translate(455.428571, 127.371429)"><path d="M13.7089372,16.1604735 C9.95537473,16.1604735 6.91083375,13.0638723 6.91083375,9.24454788 C6.91083375,5.67070249 9.57823565,2.72906843 12.9985443,2.36702116 C13.2234563,2.3450789 13.4511112,2.33273638 13.6801375,2.33273638 C17.4336999,2.33273638 20.4782409,5.42796625 20.4782409,9.24729066 C20.4782409,12.8225074 17.810839,15.7627701 14.3905304,16.1261888 C14.1656183,16.148131 13.9393349,16.1604735 13.7089372,16.1604735 Z M27.410743,29.0062946 L27.4285714,29.2174889 C27.4244572,29.1516621 27.4148573,29.0885781 27.4093716,29.0227513 C27.3984003,29.6577054 26.8923482,30.1706057 26.2656116,30.1706057 C25.6333894,30.1706057 25.1204802,29.6481057 25.1204802,29.0062946 L25.1177374,29.0062946 C24.5486002,23.1079412 19.6622491,18.4986955 13.7144229,18.4959527 L13.7089372,18.4945813 C13.6993373,18.4945813 13.6897374,18.4959527 13.6801375,18.4959527 C8.65801628,18.4959527 4.5890284,14.3557228 4.5890284,9.24729066 C4.5890284,4.14022994 8.65801628,0 13.6801375,0 C13.6842517,0 13.6897374,0.00137139117 13.6938516,0.00137139117 C13.6993373,0.00137139117 13.7034515,0 13.7089372,0 C18.7283156,0 22.7973035,4.13885855 22.7973035,9.24454788 C22.7973035,11.1548958 22.2130807,12.9171334 21.2352619,14.3886362 C21.225662,14.4037215 21.2174335,14.4174354 21.2078336,14.4325207 C21.0638351,14.6464577 20.9129794,14.850795 20.7525239,15.0496467 C20.6990387,15.1195876 20.6414393,15.1867858 20.5852113,15.253984 C20.4384699,15.4240365 20.2930999,15.594089 20.1367586,15.7559132 C20.0229312,15.8724814 19.8995039,15.9808213 19.7788194,16.091904 C19.599164,16.2550995 19.4181372,16.4141809 19.2261392,16.5622912 C19.0355125,16.7131442 18.842143,16.8585117 18.6391736,16.992908 C18.6021454,17.017593 18.5706029,17.0463922 18.5349461,17.0683345 C23.3335267,18.9005131 26.8498344,23.3739911 27.3805719,28.7512159 C27.3984003,28.8334993 27.410743,28.9185256 27.410743,29.0062946 Z M11.4334857,22.7782588 C12.0506224,22.7782588 12.5511888,23.2788166 12.5511888,23.8959426 C12.5511888,24.5130686 12.0506224,25.0136264 11.4334857,25.0136264 L7.39466891,25.0136264 L7.39466891,29.0537448 C7.39466891,29.6708708 6.89273107,30.1714286 6.27559439,30.1714286 C5.6584577,30.1714286 5.15789128,29.6708708 5.15789128,29.0537448 L5.15789128,25.0136264 L1.11907452,25.0136264 C0.500566423,25.0136264 0,24.5130686 0,23.8959426 C0,23.2788166 0.500566423,22.7782588 1.11907452,22.7782588 L5.15789128,22.7782588 L5.15789128,18.7381404 C5.15789128,18.1210144 5.6584577,17.6204566 6.27559439,17.6204566 C6.89273107,17.6204566 7.39466891,18.1210144 7.39466891,18.7381404 L7.39466891,22.7782588 L11.4334857,22.7782588 Z"/></g></g></g></g></svg>