<svg width="132" height="36" viewBox="0 0 132 36" fill="none" xmlns="http://www.w3.org/2000/svg">
<g clip-path="url(#clip0_2001_165)">
<path d="M114.196 28.2709C114.196 27.5254 114.798 26.9436 115.574 26.9436C116.349 26.9436 116.946 27.5254 116.946 28.2709C116.946 29.0164 116.351 29.5981 115.574 29.5981C114.796 29.5981 114.196 29.0052 114.196 28.2709ZM116.67 28.2709C116.67 27.6716 116.204 27.2011 115.574 27.2011C114.943 27.2011 114.477 27.6716 114.477 28.2709C114.477 28.8701 114.938 29.3406 115.574 29.3406C116.209 29.3406 116.67 28.8749 116.67 28.2709ZM115.041 28.9655V27.5429H115.676C115.957 27.5429 116.148 27.6891 116.148 27.9132C116.148 28.104 116.001 28.2438 115.776 28.2597V28.2709C115.968 28.282 116.041 28.3885 116.08 28.5617L116.164 28.9655H115.906L115.839 28.6237C115.805 28.4664 115.749 28.4282 115.569 28.4282H115.288V28.9655H115.041ZM115.288 28.2152H115.638C115.796 28.2152 115.896 28.1199 115.896 27.98C115.896 27.8512 115.794 27.767 115.638 27.767H115.288V28.2152Z" fill="#3A352B"/>
<path d="M131.553 6.80414H124.176L128.77 1.023C128.969 0.770264 128.789 0.399902 128.465 0.399902H118.125C118.007 0.399902 117.894 0.453947 117.821 0.547729L114.676 4.5327C114.477 4.78543 114.657 5.15579 114.981 5.15579H121.466L116.944 10.9369C116.745 11.1897 116.925 11.56 117.249 11.56H124.727V15.5355C124.727 15.855 125.132 15.9933 125.328 15.7421L131.856 7.42724C132.056 7.17451 131.876 6.80414 131.552 6.80414H131.553Z" fill="#00AB7A"/>
<path d="M15.1707 9.38562V29.5886H11.4662V27.8719C10.3713 29.2771 8.86461 29.9797 6.94772 29.9797C5.03083 29.9797 3.3358 29.2723 2.00148 27.8576C0.66716 26.4429 0 24.6865 0 22.5867C0 20.4869 0.66716 18.6971 2.00148 17.2967C3.3358 15.8964 4.98455 15.1954 6.94772 15.1954C8.91089 15.1954 10.3809 15.8884 11.4662 17.2761V9.38403H15.1707V9.38562ZM10.4351 25.5353C11.2045 24.7517 11.5891 23.7598 11.5891 22.5629C11.5891 21.366 11.2045 20.4059 10.4351 19.6302C9.66584 18.8561 8.71617 18.4682 7.58615 18.4682C6.45613 18.4682 5.4921 18.8513 4.74992 19.6175C4.00775 20.3836 3.63746 21.366 3.63746 22.5629C3.63746 23.7598 4.00775 24.7739 4.74992 25.5496C5.4921 26.3237 6.43698 26.7116 7.58615 26.7116C8.73533 26.7116 9.66743 26.319 10.4351 25.5353Z" fill="#3A352B"/>
<path d="M19.4245 27.9467C18.0088 26.5908 17.3018 24.8042 17.3018 22.5884C17.3018 20.3726 17.9833 18.6988 19.3431 17.2984C20.7046 15.898 22.4762 15.197 24.6549 15.197C26.8335 15.197 28.669 15.8789 29.9666 17.2443C31.2642 18.6098 31.9138 20.328 31.9138 22.3992C31.9138 22.9667 31.8867 23.399 31.8324 23.6963H20.9089C21.035 24.6516 21.442 25.4193 22.1299 26.0011C22.8178 26.5829 23.7723 26.8722 24.9932 26.8722C26.6212 26.8722 27.7608 26.2554 28.412 25.0204L31.7223 25.9932C31.261 27.047 30.4407 27.9753 29.2596 28.7764C28.0785 29.5776 26.6388 29.9797 24.9374 29.9797C22.6757 29.9797 20.8371 29.301 19.4213 27.9467H19.4245ZM28.3322 21.3994C28.2413 20.5172 27.8662 19.7781 27.2054 19.1836C26.5446 18.5891 25.6859 18.2918 24.6277 18.2918C23.5696 18.2918 22.7571 18.5986 22.0836 19.2106C21.4101 19.8226 21.019 20.5522 20.9105 21.3994H28.3322Z" fill="#3A352B"/>
<path d="M48.0478 15.5896L42.2397 29.5902H38.1011L32.293 15.5896H36.3231L40.1904 25.5496L44.0433 15.5896H48.0462H48.0478Z" fill="#3A352B"/>
<path d="M61.2785 27.7385V29.5903H49.4053V28.1851L58.1294 17.6306H49.5665V15.7788H61.0183V17.2523L52.3197 27.7385H61.2753H61.2785Z" fill="#3A352B"/>
<path d="M65.0435 27.8735C63.7091 26.4859 63.042 24.7517 63.042 22.671C63.042 20.5903 63.7091 18.8879 65.0435 17.5082C66.3778 16.13 68.0441 15.4402 70.044 15.4402C72.4684 15.4402 74.2959 16.3812 75.5265 18.2648V15.7788H77.6573V29.5902H75.5265V27.0772C74.3151 28.9958 72.4876 29.9558 70.044 29.9558C68.0441 29.9558 66.3778 29.2628 65.0435 27.8751V27.8735ZM74.0533 26.4875C75.0716 25.4733 75.5808 24.2097 75.5808 22.6964C75.5808 21.1832 75.07 19.9195 74.0469 18.9054C73.0254 17.8912 71.7949 17.3858 70.3568 17.3858C68.8373 17.3858 67.5908 17.8833 66.6188 18.8784C65.6468 19.8734 65.16 21.1466 65.16 22.6964C65.16 24.2462 65.6468 25.4956 66.6188 26.5002C67.5908 27.5048 68.8373 28.0071 70.3568 28.0071C71.8763 28.0071 73.0366 27.5 74.0549 26.4875H74.0533Z" fill="#3A352B"/>
<path d="M93.4649 17.5082C94.7992 18.8863 95.4663 20.6078 95.4663 22.671C95.4663 24.7342 94.7992 26.4859 93.4649 27.8735C92.1306 29.2612 90.4642 29.9542 88.4644 29.9542C87.2434 29.9542 86.1644 29.6999 85.2275 29.1913C84.2906 28.6826 83.5421 27.9769 82.9818 27.0756V35.4H80.8511V15.7788H82.9818V18.2648C84.1757 16.3812 86.0032 15.4402 88.4644 15.4402C90.4642 15.4402 92.1306 16.13 93.4649 17.5082ZM91.8895 26.5018C92.8615 25.4972 93.3483 24.2287 93.3483 22.698C93.3483 21.1673 92.8615 19.8766 91.8895 18.8799C90.9175 17.8849 89.671 17.3874 88.1515 17.3874C86.6321 17.3874 85.4717 17.8944 84.4534 18.907C83.4351 19.9211 82.926 21.1848 82.926 22.698C82.926 24.2112 83.4351 25.4749 84.4534 26.4891C85.4717 27.5032 86.7039 28.0086 88.1515 28.0086C89.671 28.0086 90.9175 27.5064 91.8895 26.5018Z" fill="#3A352B"/>
<path d="M110.134 17.5082C111.469 18.8863 112.136 20.6078 112.136 22.671C112.136 24.7342 111.469 26.4859 110.134 27.8735C108.8 29.2612 107.134 29.9542 105.134 29.9542C103.913 29.9542 102.834 29.6999 101.897 29.1913C100.96 28.6826 100.211 27.9769 99.6513 27.0756V35.4H97.5205V15.7788H99.6513V18.2648C100.845 16.3812 102.673 15.4402 105.134 15.4402C107.134 15.4402 108.8 16.13 110.134 17.5082ZM108.561 26.5018C109.533 25.4972 110.019 24.2287 110.019 22.698C110.019 21.1673 109.533 19.8766 108.561 18.8799C107.589 17.8849 106.342 17.3874 104.823 17.3874C103.303 17.3874 102.143 17.8944 101.124 18.907C100.106 19.9195 99.597 21.1848 99.597 22.698C99.597 24.2112 100.106 25.4749 101.124 26.4891C102.143 27.5032 103.375 28.0086 104.823 28.0086C106.342 28.0086 107.589 27.5064 108.561 26.5018Z" fill="#3A352B"/>
</g>
<defs>
<clipPath id="clip0_2001_165">
<rect width="131.941" height="35" fill="white" transform="translate(0 0.399902)"/>
</clipPath>
</defs>
</svg>
