<svg xmlns="http://www.w3.org/2000/svg" xmlns:xlink="http://www.w3.org/1999/xlink" width="132" height="40" viewBox="0 0 126 42"><g transform="translate(0 0.682)" id="ss10900285724_1"><g transform="translate(33.455 2.809)" id="ss10900285724_2"><path d="M 13.033 28.037 L 19.875 28.037 C 20.552 28.037 21.108 28.61 21.108 29.328 L 21.108 33.601 C 21.108 34.31 20.561 34.892 19.875 34.892 L 1.233 34.892 C 0.547 34.892 0 34.31 0 33.601 L 0 32.328 C 0 32.301 0.009 32.283 0.017 32.256 L 8.796 18.855 C 9.36 18.001 8.77 16.837 7.78 16.837 L 2.136 16.837 C 1.459 16.837 0.903 16.264 0.903 15.546 L 0.903 11.473 C 0.903 10.764 1.45 10.183 2.136 10.183 L 19.545 10.183 C 20.223 10.183 20.778 10.755 20.778 11.473 L 20.778 12.683 L 12.026 26.019 C 11.461 26.874 12.043 28.037 13.033 28.037 Z" fill="black"></path><path d="M 50.572 11.88 L 50.572 33.161 C 50.572 33.843 50.025 34.402 49.339 34.402 L 45.111 34.402 C 44.512 34.402 43.999 33.965 43.895 33.371 C 43.774 32.628 42.905 32.295 42.323 32.759 C 40.526 34.175 38.338 34.892 35.76 34.892 C 33.562 34.892 31.609 34.367 29.907 33.327 C 28.206 32.287 26.877 30.827 25.922 28.955 C 24.966 27.076 24.489 24.942 24.489 22.538 C 24.489 20.134 24.966 17.991 25.922 16.12 C 26.877 14.249 28.206 12.789 29.907 11.749 C 31.609 10.708 33.562 10.184 35.76 10.184 C 37.348 10.184 38.816 10.464 40.153 11.023 C 40.952 11.364 41.69 11.784 42.349 12.3 C 42.923 12.746 43.765 12.413 43.886 11.688 C 43.99 11.093 44.503 10.656 45.102 10.656 L 49.331 10.656 C 50.025 10.638 50.572 11.189 50.572 11.88 Z M 41.594 26.866 C 42.645 25.764 43.175 24.313 43.175 22.512 C 43.175 20.719 42.653 19.268 41.594 18.158 C 40.543 17.056 39.189 16.496 37.54 16.496 C 35.889 16.496 34.535 17.056 33.502 18.175 C 32.468 19.294 31.948 20.737 31.948 22.503 C 31.948 24.269 32.468 25.712 33.502 26.831 C 34.535 27.95 35.881 28.51 37.54 28.51 C 39.198 28.51 40.543 27.976 41.594 26.866 Z" fill="black"></path><path d="M 55.181 7.177 C 54.356 6.396 53.953 5.401 53.953 4.193 C 53.953 2.958 54.373 1.945 55.208 1.164 C 56.042 0.391 57.103 0 58.385 0 C 59.675 0 60.737 0.391 61.571 1.173 C 62.405 1.954 62.826 2.967 62.826 4.202 C 62.826 5.41 62.414 6.396 61.597 7.186 C 60.781 7.959 59.71 8.35 58.385 8.35 C 57.068 8.35 55.998 7.959 55.181 7.177 Z M 55.822 10.748 L 60.913 10.748 C 61.597 10.748 62.159 11.308 62.159 12.01 L 62.159 33.631 C 62.159 34.323 61.606 34.892 60.913 34.892 L 55.822 34.892 C 55.137 34.892 54.575 34.332 54.575 33.631 L 54.575 12.01 C 54.575 11.308 55.128 10.748 55.822 10.748 Z" fill="black"></path><path d="M 92.291 11.88 L 92.291 33.161 C 92.291 33.843 91.744 34.402 91.058 34.402 L 86.83 34.402 C 86.23 34.402 85.718 33.965 85.614 33.371 C 85.492 32.628 84.624 32.295 84.042 32.759 C 82.245 34.175 80.057 34.892 77.478 34.892 C 75.282 34.892 73.327 34.367 71.626 33.327 C 69.924 32.287 68.596 30.827 67.64 28.955 C 66.685 27.076 66.208 24.942 66.208 22.538 C 66.208 20.134 66.685 17.991 67.64 16.12 C 68.596 14.249 69.924 12.789 71.626 11.749 C 73.327 10.708 75.282 10.184 77.478 10.184 C 79.067 10.184 80.535 10.464 81.872 11.023 C 82.67 11.364 83.409 11.784 84.069 12.3 C 84.642 12.746 85.484 12.413 85.605 11.688 C 85.71 11.093 86.222 10.656 86.821 10.656 L 91.049 10.656 C 91.744 10.638 92.291 11.189 92.291 11.88 Z M 83.313 26.866 C 84.363 25.764 84.893 24.313 84.893 22.512 C 84.893 20.719 84.372 19.268 83.313 18.158 C 82.262 17.056 80.908 16.496 79.258 16.496 C 77.608 16.496 76.254 17.056 75.22 18.175 C 74.187 19.294 73.666 20.737 73.666 22.503 C 73.666 24.269 74.187 25.712 75.22 26.831 C 76.254 27.95 77.599 28.51 79.258 28.51 C 80.916 28.51 82.262 27.976 83.313 26.866 Z" fill="black"></path></g><g id="ss10900285724_7"><g><defs><linearGradient id="idss10900285724_8g1073623117" x1="1" x2="0" y1="0.6478417194027524" y2="0.35215828059724763"><stop offset="0" stop-color="rgb(94,68,221)" stop-opacity="1"></stop><stop offset="1" stop-color="rgba(94,68,221,0.8)" stop-opacity="0.8"></stop></linearGradient></defs><path d="M 2.917 0.091 C 1.771 -0.29 0.591 0.57 0.591 1.785 L 0.591 11.016 C 0.591 12.586 1.61 13.971 3.101 14.428 L 23.028 20.541 L 23.028 9.354 C 23.028 7.815 22.047 6.449 20.595 5.966 Z" fill="url(#idss10900285724_8g1073623117)"></path></g><g opacity="0.75"><defs><linearGradient id="idss10900285724_9g1458061888" x1="1" x2="0" y1="0.46590173166511684" y2="0.5340982683348832"><stop offset="0" stop-color="rgb(93,67,220)" stop-opacity="1"></stop><stop offset="1" stop-color="rgb(174,37,255)" stop-opacity="1"></stop></linearGradient></defs><path d="M 2.535 16.629 C 1.031 17.078 0 18.47 0 20.049 L 0 32.014 L 20.644 24.814 C 22.071 24.317 23.028 22.964 23.028 21.443 L 23.028 10.503 Z" fill="url(#idss10900285724_9g1458061888)"></path></g><g><defs><linearGradient id="idss10900285724_10g1200357207" x1="0" x2="1" y1="0.3286277336606689" y2="0.6713722663393311"><stop offset="0" stop-color="rgb(154,45,246)" stop-opacity="1"></stop><stop offset="1" stop-color="rgba(104,35,162,0.82)" stop-opacity="0.82"></stop></linearGradient></defs><path d="M 0 19.968 L 0 31.666 C 0 33.235 1.019 34.621 2.51 35.078 L 20.15 40.489 C 21.288 40.839 22.437 39.981 22.437 38.783 L 22.437 30.004 C 22.437 28.464 21.456 27.099 20.005 26.616 Z" fill="url(#idss10900285724_10g1200357207)"></path></g></g></g></svg>