
<svg xmlns:dc="http://purl.org/dc/elements/1.1/" xmlns:cc="http://creativecommons.org/ns#" xmlns:rdf="http://www.w3.org/1999/02/22-rdf-syntax-ns#" xmlns:svg="http://www.w3.org/2000/svg" xmlns="http://www.w3.org/2000/svg" xmlns:sodipodi="http://sodipodi.sourceforge.net/DTD/sodipodi-0.dtd" xmlns:inkscape="http://www.inkscape.org/namespaces/inkscape" viewBox="10 -2 79.999997 99.99999625" version="1.1" x="0px" y="0px"><g transform="translate(0,-952.36223)"><path style="" d="M 48.753906 4.7246094 C 48.339548 4.7349419 47.93681 4.8698313 47.677734 5.1289062 C 47.265215 5.5414762 47.102981 5.9843225 47.113281 6.6640625 C 47.125467 7.4676625 47.4524 8.0192587 48.060547 8.2617188 L 48.060547 8.2597656 C 48.801742 8.5553256 49.947377 8.2106338 50.388672 7.5585938 C 50.583995 7.2699838 50.621094 7.1054725 50.621094 6.5390625 C 50.621094 5.7890825 50.514311 5.5742588 49.896484 5.0742188 C 49.593663 4.8292138 49.168264 4.7142769 48.753906 4.7246094 z M 48.982422 5.4316406 C 49.93405 5.5238201 50.422353 6.8146684 49.554688 7.5 C 49.379076 7.63858 49.35394 7.6412837 49.177734 7.5273438 C 49.100896 7.4776738 48.824371 7.3753281 48.564453 7.2988281 C 47.933692 7.1133281 47.740174 6.8901981 47.802734 6.4238281 C 47.873938 5.8929281 48.112616 5.5901062 48.548828 5.4726562 C 48.70117 5.431635 48.84641 5.4184659 48.982422 5.4316406 z M 49.144531 6.3457031 C 49.076447 6.2776531 48.525391 6.7679544 48.525391 6.8964844 C 48.525391 6.9393844 48.599233 6.9351188 48.689453 6.8867188 C 48.930932 6.7574887 49.216631 6.4178031 49.144531 6.3457031 z M 48.595703 6.3554688 C 48.524322 6.2840887 48.060547 6.7648363 48.060547 6.9101562 C 48.060547 6.9657163 48.193566 6.8767606 48.357422 6.7128906 C 48.521283 6.5490306 48.628663 6.3888688 48.595703 6.3554688 z M 42.632812 6.4277344 C 42.578689 6.4384319 42.56325 6.5171588 42.5625 6.6679688 C 42.5618 6.8088088 42.536739 7.0175625 42.505859 7.1328125 C 42.428165 7.4226625 42.573183 7.3941406 42.896484 7.0566406 L 43.169922 6.7714844 L 42.9375 6.59375 C 42.781367 6.47395 42.686936 6.4170369 42.632812 6.4277344 z M 40.328125 6.5273438 C 40.289685 6.5286938 40.234521 6.5478906 40.160156 6.5878906 C 39.976926 6.6859106 39.967887 6.722665 40.072266 6.921875 C 40.136838 7.045125 40.357598 7.2727444 40.5625 7.4277344 L 40.5625 7.4257812 C 41.157972 7.8762413 41.179085 7.7781825 40.65625 7.0078125 C 40.534659 6.8285625 40.419351 6.6371781 40.400391 6.5800781 C 40.387951 6.5436781 40.366565 6.5259937 40.328125 6.5273438 z M 49.353516 6.609375 C 49.337001 6.6021425 49.299457 6.6276206 49.234375 6.6816406 C 49.151627 6.7503006 49.083984 6.8472844 49.083984 6.8964844 C 49.083984 7.0559644 49.316482 6.9134319 49.351562 6.7324219 C 49.366282 6.6563319 49.37003 6.6166075 49.353516 6.609375 z M 56.824219 7.8652344 C 55.798914 7.940915 54.957563 8.7428594 54.953125 10.021484 C 54.949596 11.030884 55.379727 11.730373 56.287109 12.189453 C 56.772712 12.432883 56.934481 12.471241 57.339844 12.431641 C 57.920012 12.375291 58.285315 12.19712 58.732422 11.75 C 59.197323 11.28512 59.417422 10.758852 59.419922 10.107422 C 59.422358 9.4653219 59.209291 8.9905094 58.728516 8.5683594 C 58.12201 8.0358444 57.439402 7.819826 56.824219 7.8652344 z M 57.066406 8.6855469 C 57.400219 8.7132069 57.768263 8.8793775 58.119141 9.1796875 C 58.436993 9.4517675 58.490234 9.5509675 58.490234 9.8671875 C 58.490234 10.070607 58.431845 10.349991 58.359375 10.488281 C 58.17954 10.831571 57.661928 11.313684 57.34375 11.433594 C 57.013262 11.558144 56.92855 11.553508 56.572266 11.398438 C 55.736535 11.034657 55.554045 9.8113744 56.21875 9.0214844 C 56.432117 8.7679044 56.732594 8.6578869 57.066406 8.6855469 z M 40.091797 8.8691406 C 40.050256 8.8545256 39.910103 8.8672813 39.630859 8.8945312 C 39.323507 8.9244312 39.059642 8.9584031 39.044922 8.9707031 C 39.030192 8.9826631 39.068246 9.1032381 39.128906 9.2363281 C 39.23422 9.467292 39.249427 9.4712091 39.488281 9.3300781 C 39.625016 9.2493781 39.838211 9.1061187 39.962891 9.0117188 C 40.076168 8.9260087 40.133338 8.8837556 40.091797 8.8691406 z M 42.611328 9.1074219 L 43.019531 9.4804688 L 43.019531 9.4824219 C 43.243826 9.6884819 43.462189 9.8554688 43.505859 9.8554688 C 43.621185 9.8554688 43.72136 9.3897813 43.625 9.3007812 C 43.580086 9.2593212 43.332299 9.1985156 43.076172 9.1660156 L 42.611328 9.1074219 z M 56.611328 10.041016 C 56.585715 10.041016 56.487251 10.126096 56.394531 10.228516 C 56.301813 10.331306 56.247827 10.414062 56.273438 10.414062 C 56.299051 10.414062 56.395561 10.331026 56.488281 10.228516 C 56.580999 10.125736 56.636948 10.041016 56.611328 10.041016 z M 41.058594 10.113281 C 41.014439 10.119835 40.938205 10.228445 40.830078 10.4375 C 40.689741 10.708896 40.692004 10.734613 40.853516 10.853516 C 41.045621 10.994706 41.037593 11.009754 41.095703 10.396484 C 41.114264 10.200814 41.102748 10.106728 41.058594 10.113281 z M 57.076172 10.171875 C 56.950554 10.094245 56.323434 10.764838 56.402344 10.892578 C 56.491669 11.037098 56.593216 10.977949 56.892578 10.605469 C 57.098116 10.349649 57.152872 10.219375 57.076172 10.171875 z M 57.525391 10.460938 C 57.48981 10.45386 57.404252 10.515427 57.279297 10.648438 C 57.1037 10.835421 57.091346 10.878906 57.214844 10.878906 C 57.298809 10.878906 57.413523 10.792357 57.470703 10.685547 C 57.547092 10.543047 57.560971 10.468015 57.525391 10.460938 z M 45.15625 14.199219 C 43.390695 14.271586 41.986678 15.718172 41.986328 17.865234 C 41.986052 19.419164 42.754459 20.630004 44.027344 21.083984 C 44.569247 21.277174 45.791795 21.25112 46.503906 21.03125 C 47.678323 20.66844 48.762803 19.726357 49.138672 18.742188 C 49.281292 18.368737 49.290438 18.213624 49.205078 17.621094 C 49.150645 17.243254 48.995587 16.706144 48.859375 16.427734 C 48.529065 15.752574 47.714229 14.954435 47.003906 14.609375 C 46.373267 14.303025 45.744768 14.175096 45.15625 14.199219 z M 45.482422 15.013672 C 46.207704 15.031619 46.952328 15.354691 47.548828 15.951172 C 48.364327 16.766722 48.639591 17.82276 48.255859 18.65625 C 47.886861 19.45765 46.865258 20.184796 45.833984 20.378906 C 45.081115 20.520706 44.89126 20.496686 44.369141 20.197266 C 43.567774 19.737656 42.924558 18.840901 42.791016 17.994141 C 42.650248 17.101571 43.342436 15.819019 44.234375 15.318359 C 44.619213 15.102359 45.047253 15.002903 45.482422 15.013672 z M 44.109375 17.144531 C 44.032172 17.067351 43.496094 17.589658 43.496094 17.742188 C 43.496094 17.809968 43.527986 17.865234 43.566406 17.865234 C 43.676829 17.865234 44.172345 17.207831 44.109375 17.144531 z M 59.109375 17.185547 C 59.02679 17.170181 58.966319 17.170103 58.949219 17.189453 C 58.878942 17.268301 58.491238 18.411898 58.490234 18.542969 C 58.490234 18.633699 59.244242 18.02504 59.587891 17.65625 L 59.798828 17.429688 L 59.40625 17.275391 C 59.298047 17.233106 59.19196 17.200913 59.109375 17.185547 z M 44.886719 17.363281 C 44.842791 17.319321 44.187483 17.897572 43.972656 18.169922 C 43.902356 18.259032 43.883068 18.332031 43.929688 18.332031 C 44.038666 18.332031 44.941539 17.417781 44.886719 17.363281 z M 55.322266 17.400391 C 55.279574 17.400391 55.113916 17.55791 54.955078 17.75 L 54.667969 18.097656 L 55.298828 18.25 C 56.058697 18.43333 56.070312 18.436906 56.070312 18.378906 C 56.070313 18.282026 55.396256 17.400391 55.322266 17.400391 z M 45.527344 17.521484 C 45.509218 17.513755 45.457461 17.53294 45.373047 17.578125 C 45.041081 17.755795 44.054688 18.717611 44.054688 18.863281 C 44.054688 18.940551 44.376043 18.703788 44.777344 18.330078 C 45.336775 17.809368 45.581721 17.544672 45.527344 17.521484 z M 46.113281 18.105469 C 46.07029 18.078839 45.704657 18.371419 45.300781 18.755859 C 44.896906 19.140379 44.63496 19.441834 44.71875 19.427734 C 44.920894 19.393094 46.213628 18.166969 46.113281 18.105469 z M 46.173828 18.804688 C 46.161022 18.826057 46.048014 18.958769 45.923828 19.099609 C 45.799679 19.240449 45.744341 19.355469 45.800781 19.355469 C 45.924361 19.355469 46.312111 18.882153 46.244141 18.814453 C 46.217811 18.787853 46.186638 18.783587 46.173828 18.804688 z M 56.378906 20.365234 L 56.060547 20.501953 C 55.001289 20.960063 54.791119 21.049806 54.599609 21.128906 C 54.395947 21.212506 54.394149 21.229127 54.533203 21.498047 C 54.678069 21.778127 54.678221 21.776566 55.017578 21.634766 C 55.439438 21.458506 55.516576 21.394679 55.994141 20.824219 L 56.378906 20.365234 z M 59.537109 20.876953 C 59.493996 20.910028 59.608961 21.016685 59.853516 21.21875 C 60.352033 21.63071 60.382267 21.642339 60.521484 21.474609 C 60.750144 21.199089 60.680149 21.099812 60.167969 20.976562 C 59.781324 20.883508 59.580223 20.843878 59.537109 20.876953 z M 57.699219 22.041016 L 57.636719 22.443359 C 57.602089 22.665509 57.570206 23.00078 57.566406 23.1875 L 57.558594 23.527344 L 57.892578 23.451172 C 58.075925 23.409632 58.245481 23.357684 58.269531 23.333984 C 58.293586 23.309984 58.174842 23.007623 58.005859 22.664062 L 57.699219 22.041016 z M 57.166016 25.072266 C 56.755428 25.063076 56.284649 25.079911 55.732422 25.119141 C 54.918966 25.177101 53.121367 25.230469 51.738281 25.230469 C 47.019564 25.242689 43.508526 25.369488 42.9375 25.548828 C 41.72945 25.928168 41.031115 26.469774 40.632812 27.339844 C 40.302714 28.060894 40.353561 28.949948 40.771484 29.798828 C 41.094949 30.455878 42.030419 31.435336 42.496094 31.603516 L 42.753906 31.697266 L 42.798828 41.429688 C 42.822899 46.782717 42.867467 51.669616 42.898438 52.291016 C 42.947051 53.266116 42.926598 53.521497 42.755859 54.154297 C 42.370715 55.581697 42.14176 55.984966 40.779297 57.634766 C 40.29281 58.223866 39.559334 59.188244 39.148438 59.777344 C 31.705876 70.447544 29.07172 74.143675 26.085938 78.109375 C 22.975666 82.240275 22.665691 82.683741 22.087891 83.806641 C 21.121655 85.684441 20.740929 87.159159 20.730469 89.068359 C 20.723152 90.403159 20.87291 90.936972 21.435547 91.576172 C 21.747425 91.930672 21.867056 92.001953 22.138672 92.001953 C 22.319457 92.001953 22.585493 92.089313 22.734375 92.195312 C 24.020473 93.111112 27.633889 94.057247 31.759766 94.560547 C 32.99363 94.710947 39.424075 95.187416 42.470703 95.353516 C 43.469598 95.408516 44.517088 95.467328 44.798828 95.486328 C 46.253814 95.579928 56.191114 95.454106 58.257812 95.316406 C 68.015028 94.666006 68.413569 94.631906 71.128906 94.191406 C 74.640886 93.621606 77.000493 92.936634 78.066406 92.177734 C 78.261626 92.038334 78.472088 91.975281 78.695312 91.988281 C 78.974382 92.004781 79.090163 91.94855 79.375 91.65625 C 79.563507 91.46275 79.813857 91.093991 79.931641 90.837891 C 80.124103 90.419391 80.144725 90.239281 80.140625 89.050781 C 80.136519 87.876281 80.116405 87.705284 79.955078 87.521484 C 79.855168 87.408384 79.831404 87.347672 79.902344 87.388672 C 80.212469 87.570972 79.692722 85.646616 79.066406 84.291016 C 78.634219 83.355516 77.809387 82.081125 76.703125 80.640625 C 73.827177 76.895625 69.686176 71.168594 65.121094 64.621094 C 61.035946 58.761994 60.975109 58.676816 60.037109 57.541016 C 58.458408 55.629516 58.13927 54.893216 58.0625 52.978516 C 57.97849 50.883116 57.730198 42.920729 57.679688 40.724609 C 57.647178 39.310909 57.669124 38.196974 57.746094 37.464844 C 57.810401 36.853064 57.893911 35.431618 57.931641 34.304688 C 57.969374 33.177657 58.036931 32.122867 58.082031 31.960938 C 58.138107 31.759617 58.312396 31.565586 58.630859 31.347656 C 59.185541 30.968056 60.090127 29.925061 60.427734 29.275391 C 60.627765 28.890431 60.670628 28.680363 60.673828 28.064453 C 60.677105 27.434303 60.640218 27.246609 60.431641 26.849609 C 60.295999 26.591409 59.988906 26.200689 59.75 25.980469 C 59.081892 25.364479 58.397779 25.099836 57.166016 25.072266 z M 56.642578 26.083984 C 57.578989 26.060845 58.060762 26.152876 58.570312 26.400391 C 59.381026 26.794331 59.84957 27.716616 59.623047 28.472656 C 59.509099 28.853046 58.711491 29.897904 58.226562 30.302734 C 57.826511 30.636714 57.009367 30.782838 54.904297 30.898438 C 54.033466 30.946208 53.258481 31.007856 53.181641 31.035156 C 52.95698 31.115596 49.894299 31.391778 48.525391 31.455078 L 47.267578 31.513672 L 48.013672 31.605469 C 48.423476 31.655269 50.580291 31.697266 52.808594 31.697266 L 56.861328 31.697266 L 56.835938 33.511719 C 56.821984 34.510659 56.747565 36.076214 56.671875 36.990234 C 56.596185 37.904334 56.53417 39.203023 56.533203 39.876953 C 56.530489 41.843453 57.044339 52.328134 57.197266 53.427734 C 57.250616 53.810934 57.271461 54.209953 57.244141 54.314453 C 57.216821 54.418853 57.229867 54.549516 57.273438 54.603516 C 57.317006 54.657416 57.421739 54.971534 57.505859 55.302734 C 57.697523 56.057434 58.13108 56.830216 58.865234 57.728516 C 59.787268 58.856616 60.338001 59.617425 61.705078 61.640625 C 66.417789 68.615325 71.339448 75.496063 76.158203 81.851562 C 77.13377 83.138163 77.698136 84.065834 78.183594 85.177734 C 78.913145 86.848634 79.289275 89.259625 78.947266 90.078125 C 78.611467 90.881825 76.950743 91.823244 75.068359 92.277344 C 73.417602 92.675644 70.50745 93.177084 68.572266 93.396484 C 66.923795 93.583284 59.871155 94.054622 56.070312 94.232422 C 53.86203 94.335022 48.567707 94.417141 47.035156 94.369141 C 43.626461 94.264141 34.524278 93.712875 32.412109 93.484375 C 28.714819 93.084375 24.602107 92.171128 23.416016 91.486328 C 22.895407 91.185628 22.248069 90.637878 22.050781 90.330078 C 21.675381 89.744178 21.800822 87.857741 22.326172 86.181641 C 22.862409 84.471041 23.52736 83.410034 26.599609 79.365234 C 29.839157 75.100134 34.673616 68.301519 38.804688 62.199219 C 40.63584 59.494419 40.903945 59.120138 41.939453 57.835938 C 43.033734 56.478937 43.500214 55.450853 43.679688 54.001953 C 43.806408 52.978953 43.867729 48.831681 43.886719 40.019531 L 43.904297 31.576172 L 44.5625 31.507812 L 45.21875 31.439453 L 44.111328 31.167969 C 42.604392 30.797859 42.027451 30.379178 41.537109 29.298828 C 41.323505 28.828238 41.297441 28.021862 41.484375 27.664062 C 41.655012 27.337382 42.061224 26.962889 42.470703 26.755859 C 43.300277 26.336489 43.477351 26.323109 48.898438 26.287109 C 51.741448 26.268209 54.728945 26.204331 55.537109 26.144531 C 55.96805 26.112774 56.330441 26.091697 56.642578 26.083984 z M 50.707031 26.947266 C 50.166183 26.942966 49.654182 26.958628 49.154297 26.992188 C 47.763743 27.085547 43.723552 27.665179 43.355469 27.824219 C 43.177761 27.901009 43.180208 27.909094 43.402344 27.996094 C 43.751868 28.132884 45.07884 28.301912 46.433594 28.382812 L 46.433594 28.378906 C 48.255141 28.491996 52.424524 28.495662 53.837891 28.388672 C 55.06206 28.296102 57.846728 27.940187 57.923828 27.867188 C 58.02527 27.771017 57.757956 27.696266 56.753906 27.541016 C 54.206863 27.147326 52.329575 26.960166 50.707031 26.947266 z M 48.291016 33.140625 C 48.131948 33.140625 47.76359 33.358029 47.238281 33.761719 C 46.018596 34.699119 45.730469 34.995333 45.730469 35.314453 L 45.730469 35.585938 L 46.173828 35.175781 C 46.417148 34.950031 47.024755 34.438532 47.523438 34.039062 C 48.022118 33.639503 48.453022 33.274063 48.482422 33.226562 C 48.511824 33.179062 48.425664 33.140625 48.291016 33.140625 z M 46.074219 33.232422 C 45.754754 33.232422 45.730469 33.251859 45.730469 33.511719 C 45.730469 33.665389 45.765001 33.791016 45.806641 33.791016 C 45.848282 33.791016 46.003159 33.665389 46.150391 33.511719 L 46.417969 33.232422 L 46.074219 33.232422 z M 48.626953 34.611328 L 48.367188 34.798828 C 48.224063 34.902208 47.728607 35.332546 47.267578 35.753906 C 46.80655 36.175186 46.272173 36.661967 46.080078 36.835938 C 45.856899 37.038137 45.730469 37.234489 45.730469 37.380859 C 45.730469 37.506839 45.772636 37.611328 45.822266 37.611328 C 45.905505 37.611328 48.374718 35.364957 48.460938 35.210938 C 48.481956 35.173397 48.52755 35.022883 48.5625 34.876953 L 48.626953 34.611328 z M 47.970703 37.238281 C 47.93084 37.238281 47.431739 37.63753 46.861328 38.125 C 46.04979 38.81862 45.824219 39.062534 45.824219 39.246094 C 45.824219 39.561344 45.933591 39.491621 47.035156 38.488281 C 47.79917 37.792381 48.21409 37.238281 47.970703 37.238281 z M 47.6875 39.367188 L 47.431641 39.558594 C 46.792466 40.035254 45.983895 40.845376 46.046875 40.947266 C 46.150733 41.115356 46.193999 41.093768 46.964844 40.492188 C 47.581188 40.011138 47.6875 39.888348 47.6875 39.648438 L 47.6875 39.367188 z M 47.386719 41.361328 C 47.279695 41.412977 47.070654 41.578151 46.662109 41.900391 C 46.009649 42.415111 45.824219 42.613189 45.824219 42.792969 C 45.824219 43.057759 45.748574 43.096848 46.828125 42.267578 C 47.367644 41.853068 47.495547 41.705064 47.498047 41.496094 C 47.499561 41.370249 47.493743 41.309679 47.386719 41.361328 z M 47.332031 43.011719 C 47.307988 43.011719 46.960983 43.27357 46.560547 43.59375 C 45.968327 44.06724 45.831225 44.22484 45.828125 44.4375 C 45.823816 44.73719 45.778773 44.759632 46.728516 44.007812 C 47.142483 43.680162 47.306638 43.484806 47.335938 43.285156 C 47.357998 43.134836 47.356071 43.011719 47.332031 43.011719 z M 47.09375 44.888672 C 47.005283 44.926991 46.837195 45.066848 46.5 45.345703 C 45.930492 45.816643 45.824219 45.949023 45.824219 46.189453 L 45.824219 46.474609 L 46.173828 46.191406 C 47.148418 45.399936 47.239421 45.297703 47.207031 45.039062 C 47.191253 44.913133 47.182217 44.850353 47.09375 44.888672 z M 46.917969 46.929688 C 46.840833 46.963654 46.695456 47.093367 46.40625 47.351562 C 45.987412 47.725512 45.824219 47.934962 45.824219 48.101562 L 45.824219 48.333984 L 46.080078 48.142578 C 46.825664 47.584778 47.050651 47.329918 47.019531 47.080078 C 47.004087 46.956078 46.995104 46.895721 46.917969 46.929688 z M 46.775391 48.787109 C 46.615537 48.787109 45.907814 49.606997 45.865234 49.841797 C 45.840424 49.978897 45.837565 50.091797 45.859375 50.091797 C 46.002169 50.091797 46.849609 49.142722 46.849609 48.982422 C 46.849609 48.875722 46.815951 48.787109 46.775391 48.787109 z M 46.472656 50.919922 C 46.420995 50.939034 46.333012 51.017169 46.173828 51.167969 C 45.981732 51.349869 45.824219 51.582847 45.824219 51.685547 C 45.824219 51.873547 45.823772 51.873547 46.087891 51.685547 C 46.467074 51.415447 46.587394 51.246097 46.552734 51.029297 C 46.538864 50.942447 46.524317 50.900809 46.472656 50.919922 z M 46.419922 52.189453 C 46.4007 52.177366 46.350809 52.216275 46.253906 52.296875 C 45.939987 52.558075 45.824219 52.721644 45.824219 52.902344 C 45.824219 52.994944 45.858101 53.070312 45.900391 53.070312 C 46.046546 53.070312 46.36024 52.651078 46.40625 52.392578 C 46.428925 52.265328 46.439144 52.201541 46.419922 52.189453 z M 45.443359 59.871094 C 45.306498 59.871094 45.266398 59.916303 45.298828 60.033203 C 45.323699 60.122803 45.37132 60.448559 45.40625 60.755859 C 45.44118 61.063259 45.496577 61.35525 45.529297 61.40625 C 45.614678 61.54005 45.759686 60.369756 45.691406 60.097656 C 45.654054 59.949056 45.568034 59.871094 45.443359 59.871094 z M 44.443359 61.796875 C 44.424051 61.796173 44.400778 61.809031 44.373047 61.832031 C 44.150405 62.016731 44.261955 63.460622 44.669922 65.669922 L 44.830078 66.529297 L 44.964844 66.126953 C 45.088233 65.759053 45.079663 65.603025 44.863281 64.265625 C 44.733282 63.462125 44.599516 62.561172 44.566406 62.263672 C 44.528563 61.923997 44.501285 61.79898 44.443359 61.796875 z M 43.054688 64.111328 C 43.03527 64.119684 43.015598 64.143059 42.990234 64.177734 C 42.89613 64.306434 42.903206 64.479891 43.035156 65.087891 C 43.124864 65.501291 43.228132 66.090184 43.263672 66.396484 L 43.328125 66.953125 L 42.849609 66.765625 C 42.586406 66.661925 42.354564 66.576172 42.333984 66.576172 C 42.3134 66.576172 42.267182 66.386097 42.232422 66.154297 C 42.178897 65.797397 42.149066 65.751656 42.033203 65.847656 C 41.944213 65.921556 41.915139 66.052256 41.949219 66.222656 C 42.001274 66.482456 41.998343 66.484641 41.607422 66.431641 C 41.390911 66.402641 41.117313 66.357984 41 66.333984 C 40.882689 66.310984 40.580245 66.320516 40.326172 66.353516 C 39.958754 66.402316 39.863281 66.449291 39.863281 66.587891 C 39.863281 66.684091 39.907951 66.761719 39.962891 66.761719 C 40.017828 66.761719 39.966625 66.882097 39.847656 67.029297 C 39.482468 67.481497 37.975353 69.366494 37.576172 69.871094 C 37.368682 70.133394 36.345956 71.501456 35.302734 72.910156 C 34.259513 74.318856 32.836478 76.176663 32.140625 77.039062 C 29.352499 80.494463 28.010867 82.282169 27.308594 83.480469 C 26.531042 84.807269 26.091254 86.313312 26.203125 87.257812 C 26.436512 89.228413 28.352388 90.369869 32.039062 90.730469 C 32.913607 90.815869 35.166224 90.777178 37.148438 90.642578 C 38.977103 90.517578 40.029436 90.506266 43.355469 90.572266 C 49.023895 90.685366 54.376892 90.667697 55.976562 90.529297 C 56.719331 90.465097 58.598354 90.285813 60.152344 90.132812 C 63.55632 89.797613 65.315632 89.675781 66.892578 89.675781 C 71.246133 89.668781 73.616079 88.331694 73.746094 85.808594 C 73.792564 84.906794 73.622202 84.177878 73.109375 83.080078 C 72.263395 81.269078 70.413743 78.883294 65.484375 73.246094 C 64.583213 72.215594 63.409277 70.849284 62.875 70.208984 C 61.24022 68.249784 60.517028 67.566819 59.623047 67.136719 C 57.498013 66.114419 55.791491 66.162388 51.412109 67.367188 C 48.895187 68.059587 48.421027 68.161609 47.398438 68.224609 C 46.343058 68.289709 45.400603 68.13935 45 67.84375 C 44.848764 67.73225 44.513319 67.541422 44.253906 67.419922 C 43.808395 67.211322 43.779616 67.175884 43.722656 66.771484 C 43.631519 66.124384 43.416171 65.100997 43.251953 64.529297 C 43.156045 64.195322 43.112939 64.086259 43.054688 64.111328 z M 28.572266 64.347656 C 11.009319 84.199356 19.790792 74.273456 28.572266 64.347656 z M 40.267578 66.738281 L 40.9375 66.794922 C 42.024038 66.886822 42.052776 66.907359 42.185547 67.755859 C 42.248324 68.157059 42.360277 68.758897 42.435547 69.091797 C 42.510813 69.424797 42.595377 69.844137 42.623047 70.023438 C 42.650725 70.202738 42.703464 70.494528 42.740234 70.673828 L 42.806641 71 L 42.962891 70.765625 C 43.109183 70.543725 43.104654 70.479263 42.888672 69.601562 C 42.651885 68.639263 42.381914 67.204344 42.427734 67.152344 C 42.442121 67.136044 42.66434 67.213519 42.921875 67.324219 L 43.390625 67.525391 L 43.455078 68.144531 C 43.491412 68.485531 43.570529 68.933772 43.630859 69.138672 L 43.742188 69.509766 L 43.880859 69.230469 C 43.971639 69.049369 43.997508 68.853075 43.955078 68.671875 C 43.919078 68.518275 43.885006 68.257697 43.878906 68.091797 L 43.869141 67.789062 L 44.333984 68.076172 C 44.590111 68.233772 44.798828 68.396453 44.798828 68.439453 C 44.798828 68.482553 45.081963 68.658878 45.427734 68.830078 C 45.773506 69.001378 46.622911 69.462316 47.314453 69.853516 C 49.747365 71.229816 51.709734 71.839691 54.298828 72.025391 C 56.858455 72.208791 60.029045 71.206344 60.816406 69.964844 C 60.991793 69.688844 61.101893 69.593438 61.189453 69.648438 C 61.257866 69.692437 61.360146 69.711359 61.416016 69.693359 C 61.471886 69.675259 61.927889 70.159931 62.429688 70.769531 C 62.931484 71.379231 64.186957 72.853775 65.21875 74.046875 C 67.674926 76.887275 70.211879 79.93305 70.931641 80.90625 C 73.24474 84.03425 73.673463 86.331972 72.191406 87.638672 C 71.678157 88.091172 71.250092 88.319587 70.476562 88.554688 C 69.449308 88.866888 68.823696 88.938484 66.314453 89.021484 C 64.736638 89.074284 62.451387 89.238516 59.980469 89.478516 C 53.900363 90.068916 53.726483 90.075859 46.056641 90.005859 C 40.357055 89.954159 38.778202 89.969091 36.929688 90.087891 C 34.907064 90.217891 32.53333 90.257828 31.806641 90.173828 C 27.559451 89.681528 26.1039 88.414741 26.783203 85.806641 C 27.214533 84.150641 28.266243 82.532475 31.623047 78.359375 C 33.799305 75.653775 35.711058 73.113369 37.740234 70.230469 C 37.85828 70.062669 38.121271 69.697722 38.326172 69.419922 C 38.531074 69.142222 39.051387 68.426725 39.482422 67.828125 L 40.267578 66.738281 z M 56.589844 67.185547 C 57.275738 67.194797 57.910227 67.253222 58.255859 67.357422 C 59.017343 67.586822 59.461633 67.827025 59.9375 68.265625 C 60.405559 68.697025 60.520293 69.050906 60.318359 69.441406 C 59.949775 70.154206 58.233703 70.962056 56.535156 71.222656 L 56.535156 71.224609 C 54.138848 71.592309 51.592681 71.178194 48.970703 69.996094 C 48.084481 69.596694 46.913338 68.993984 46.955078 68.958984 C 46.973134 68.942984 47.282047 68.906 47.640625 68.875 C 48.198488 68.8272 48.268761 68.838413 48.126953 68.945312 C 47.973027 69.061712 47.972737 69.074859 48.119141 69.130859 C 48.219065 69.169159 48.364808 69.109097 48.517578 68.966797 C 48.653137 68.840597 48.981351 68.691906 49.269531 68.628906 C 49.551271 68.567006 49.864213 68.492844 49.964844 68.464844 C 50.091106 68.429544 50.011998 68.565344 49.708984 68.902344 C 49.467484 69.170944 49.269531 69.428609 49.269531 69.474609 C 49.269531 69.676909 49.474568 69.514197 49.910156 68.966797 C 50.364425 68.395897 50.402864 68.371481 51.117188 68.175781 C 51.522884 68.064581 51.883169 67.974609 51.917969 67.974609 C 51.952764 67.974609 51.664073 68.358778 51.277344 68.830078 C 50.890616 69.301378 50.574219 69.720719 50.574219 69.761719 C 50.574219 70.062819 51.082866 69.535734 52.158203 68.115234 C 52.337503 67.878334 52.503924 67.781313 52.886719 67.695312 C 53.159787 67.634313 53.397786 67.598187 53.416016 67.617188 C 53.434251 67.635387 53.08052 68.175053 52.630859 68.814453 C 52.026686 69.673653 51.852383 69.984766 51.958984 70.009766 C 52.143791 70.053066 52.384351 69.753356 53.197266 68.472656 L 53.857422 67.433594 L 54.613281 67.308594 C 55.165544 67.216394 55.903949 67.176297 56.589844 67.185547 z M 55.308594 67.787109 C 55.192929 67.787109 54.850709 68.205806 53.849609 69.566406 C 53.494888 70.048006 53.466761 70.115234 53.632812 70.115234 C 53.767415 70.115234 54.047428 69.805669 54.597656 69.042969 C 55.447007 67.865469 55.490379 67.787109 55.308594 67.787109 z M 40.832031 67.912109 C 40.735679 67.918277 40.695771 68.353691 40.78125 68.681641 C 40.833096 68.880741 40.990379 69.934837 41.130859 71.023438 C 41.27134 72.111938 41.420727 73.001953 41.460938 73.001953 C 41.501151 73.001953 41.581435 72.911481 41.640625 72.800781 C 41.757685 72.582081 41.684843 71.865337 41.339844 69.835938 C 41.145568 68.693238 40.994048 68.070547 40.876953 67.935547 C 40.861088 67.917259 40.845796 67.911228 40.832031 67.912109 z M 55.951172 69.048828 C 55.805632 69.125773 55.571872 69.4234 55.324219 69.859375 C 55.164077 70.140675 55.152053 70.208984 55.263672 70.208984 C 55.464005 70.208984 56.182982 69.167428 56.064453 69.048828 C 56.038227 69.022628 55.999685 69.02318 55.951172 69.048828 z M 40.048828 69.371094 C 39.813457 69.371094 39.858993 70.002553 40.304688 72.939453 C 40.540526 74.493453 40.542605 74.506172 40.722656 74.326172 C 40.898066 74.150772 40.899377 74.118956 40.755859 73.410156 C 40.674135 73.006456 40.525121 72.090147 40.423828 71.373047 C 40.174665 69.608947 40.130388 69.371094 40.048828 69.371094 z M 57.232422 69.792969 C 57.134272 69.837223 57.000531 70.046975 57.003906 70.203125 C 57.0062 70.310725 57.054235 70.291206 57.189453 70.128906 C 57.289924 70.008306 57.34566 69.8665 57.3125 69.8125 C 57.29397 69.782525 57.265138 69.778217 57.232422 69.792969 z M 39.136719 71.033203 C 39.116117 71.049873 39.09241 71.083406 39.060547 71.128906 C 38.94266 71.297006 38.94238 71.453394 39.064453 72.371094 C 39.141302 72.948594 39.248674 73.841216 39.302734 74.353516 C 39.356787 74.865716 39.424645 75.427463 39.453125 75.601562 C 39.504576 75.915962 39.506112 75.915675 39.6875 75.734375 C 39.865592 75.556275 39.865698 75.522856 39.722656 74.347656 C 39.5496 72.925956 39.431472 72.115594 39.294922 71.433594 C 39.224291 71.080869 39.198524 70.983192 39.136719 71.033203 z M 38.023438 73.015625 C 37.999979 73.018288 37.970586 73.070131 37.914062 73.175781 C 37.821232 73.349181 37.837387 73.664809 37.998047 74.849609 C 38.10689 75.652209 38.241055 76.551556 38.296875 76.847656 C 38.407579 77.435256 38.46256 77.448787 38.609375 76.929688 C 38.678635 76.684888 38.67497 76.4047 38.59375 75.9375 C 38.531413 75.5789 38.411042 74.848906 38.326172 74.316406 C 38.241304 73.783906 38.138779 73.26205 38.099609 73.15625 C 38.064399 73.06095 38.046896 73.012962 38.023438 73.015625 z M 37.177734 74.494141 C 37.154344 74.506625 37.127831 74.541194 37.09375 74.589844 C 36.97454 74.759944 36.968951 74.871784 37.056641 75.271484 C 37.147185 75.684084 37.535156 78.207013 37.535156 78.382812 C 37.535154 78.417013 37.625828 78.354641 37.736328 78.244141 L 37.9375 78.044922 L 37.775391 77.037109 C 37.686716 76.483109 37.529644 75.659231 37.425781 75.207031 C 37.290537 74.618281 37.247904 74.456688 37.177734 74.494141 z M 36.296875 75.980469 C 36.255093 75.962103 36.215773 76.009056 36.175781 76.113281 C 36.130948 76.230181 36.445873 78.691009 36.574219 79.224609 C 36.620849 79.418408 36.640508 79.425675 36.787109 79.292969 C 36.939249 79.155269 36.938219 79.089519 36.78125 78.074219 C 36.564597 76.673144 36.422222 76.035566 36.296875 75.980469 z M 35.234375 77.724609 C 35.21437 77.72129 35.195007 77.726866 35.177734 77.744141 C 35.112018 77.809841 35.131131 78.044381 35.238281 78.488281 C 35.324243 78.844481 35.417706 79.400509 35.447266 79.724609 C 35.476836 80.048709 35.520609 80.372359 35.542969 80.443359 C 35.57558 80.54554 35.619997 80.540123 35.763672 80.410156 C 35.956936 80.235256 35.957419 80.242816 35.712891 78.978516 C 35.573148 78.256028 35.374413 77.747842 35.234375 77.724609 z M 34.246094 79.421875 C 34.203105 79.406802 34.159921 79.420166 34.117188 79.462891 C 34.085726 79.494391 34.156798 80.024825 34.275391 80.640625 C 34.482675 81.716925 34.497173 81.754669 34.662109 81.605469 C 34.877381 81.410669 34.876924 81.356697 34.638672 80.341797 C 34.504972 79.772397 34.375061 79.467095 34.246094 79.421875 z M 33.033203 81.851562 C 32.994518 81.861348 32.957266 81.891188 32.923828 81.945312 C 32.891347 81.997813 32.93989 82.3328 33.03125 82.6875 C 33.158905 83.1825 33.22283 83.309375 33.3125 83.234375 C 33.522842 83.059775 33.54713 82.785653 33.390625 82.314453 C 33.281913 81.986553 33.14926 81.822205 33.033203 81.851562 z M 32.621094 83.251953 C 32.511584 83.218373 32.427753 83.422828 32.478516 83.798828 L 32.535156 84.210938 L 32.708984 83.996094 C 32.819853 83.859094 32.861929 83.709284 32.824219 83.583984 C 32.76222 83.378109 32.686799 83.272101 32.621094 83.251953 z M 31.835938 85.021484 C 31.75696 85.046905 31.669286 85.204322 31.619141 85.435547 L 31.558594 85.714844 L 31.765625 85.410156 C 31.878556 85.241556 31.943006 85.075969 31.910156 85.042969 C 31.887055 85.019869 31.862263 85.013011 31.835938 85.021484 z " transform="translate(0,952.36223)" fill="white"/></g></svg>